<svg width="63" height="70" viewBox="0 0 63 70" fill="none" xmlns="http://www.w3.org/2000/svg">
<path d="M41.2388 37.0708C43.8123 34.8211 45.6907 31.736 46.6128 28.2448C47.5348 24.7536 47.4545 21.0299 46.3832 17.5918C45.3119 14.1536 43.3027 11.172 40.6352 9.06166C37.9677 6.95135 34.7746 5.81731 31.5 5.81731C28.2254 5.81731 25.0323 6.95135 22.3648 9.06166C19.6973 11.172 17.6882 14.1536 16.6168 17.5918C15.5455 21.0299 15.4652 24.7536 16.3873 28.2448C17.3093 31.736 19.1877 34.8211 21.7613 37.0708C17.3515 39.0339 13.5038 42.2898 10.6283 46.4914C7.75294 50.6931 5.95761 55.683 5.43376 60.9292C5.39584 61.3122 5.42619 61.6998 5.52307 62.0698C5.61996 62.4397 5.78148 62.7849 5.99842 63.0855C6.43656 63.6927 7.07381 64.0816 7.77001 64.1667C8.4662 64.2518 9.1643 64.0261 9.71074 63.5393C10.2572 63.0524 10.6072 62.3444 10.6838 61.5708C11.2602 55.8693 13.7069 50.6036 17.5566 46.7798C21.4062 42.956 26.3889 40.8422 31.5525 40.8422C36.7162 40.8422 41.6988 42.956 45.5484 46.7798C49.3981 50.6036 51.8448 55.8693 52.4213 61.5708C52.4926 62.2875 52.8004 62.9494 53.2852 63.4288C53.7699 63.9082 54.3973 64.171 55.0463 64.1667H55.335C56.0231 64.0787 56.652 63.6921 57.0847 63.0911C57.5174 62.4902 57.7188 61.7236 57.645 60.9583C57.1187 55.6973 55.3137 50.6945 52.4235 46.4864C49.5333 42.2783 45.6669 39.0235 41.2388 37.0708ZM31.5 35C29.4233 35 27.3932 34.3158 25.6665 33.0338C23.9398 31.7519 22.594 29.9298 21.7993 27.798C21.0045 25.6662 20.7966 23.3204 21.2018 21.0573C21.6069 18.7942 22.6069 16.7154 24.0754 15.0838C25.5438 13.4521 27.4148 12.341 29.4516 11.8908C31.4884 11.4407 33.5996 11.6717 35.5182 12.5547C37.4368 13.4378 39.0767 14.9331 40.2304 16.8517C41.3842 18.7703 42 21.0259 42 23.3333C42 26.4275 40.8938 29.395 38.9246 31.5829C36.9555 33.7708 34.2848 35 31.5 35Z" fill="#072D69"/>
</svg>
